<svg width="38" height="38" viewBox="0 0 38 38" fill="none" xmlns="http://www.w3.org/2000/svg">
<g filter="url(#filter0_d_3102_150)">
<path d="M31.5 12.5H21.5V2.5C21.5 1.83696 21.2366 1.20107 20.7678 0.732234C20.2989 0.263393 19.663 0 19 0C18.337 0 17.7011 0.263393 17.2322 0.732234C16.7634 1.20107 16.5 1.83696 16.5 2.5V12.5H6.5C5.83696 12.5 5.20107 12.7634 4.73223 13.2322C4.26339 13.7011 4 14.337 4 15C4 15.663 4.26339 16.2989 4.73223 16.7678C5.20107 17.2366 5.83696 17.5 6.5 17.5H16.5V27.5C16.5 28.163 16.7634 28.7989 17.2322 29.2678C17.7011 29.7366 18.337 30 19 30C19.663 30 20.2989 29.7366 20.7678 29.2678C21.2366 28.7989 21.5 28.163 21.5 27.5V17.5H31.5C32.163 17.5 32.7989 17.2366 33.2678 16.7678C33.7366 16.2989 34 15.663 34 15C34 14.337 33.7366 13.7011 33.2678 13.2322C32.7989 12.7634 32.163 12.5 31.5 12.5Z" fill="#92CAFF"/>
</g>
<defs>
<filter id="filter0_d_3102_150" x="0" y="0" width="38" height="38" filterUnits="userSpaceOnUse" color-interpolation-filters="sRGB">
<feFlood flood-opacity="0" result="BackgroundImageFix"/>
<feColorMatrix in="SourceAlpha" type="matrix" values="0 0 0 0 0 0 0 0 0 0 0 0 0 0 0 0 0 0 127 0" result="hardAlpha"/>
<feOffset dy="4"/>
<feGaussianBlur stdDeviation="2"/>
<feComposite in2="hardAlpha" operator="out"/>
<feColorMatrix type="matrix" values="0 0 0 0 0 0 0 0 0 0 0 0 0 0 0 0 0 0 0.25 0"/>
<feBlend mode="normal" in2="BackgroundImageFix" result="effect1_dropShadow_3102_150"/>
<feBlend mode="normal" in="SourceGraphic" in2="effect1_dropShadow_3102_150" result="shape"/>
</filter>
</defs>
</svg>
